REM DIRINDEX 1\2,1\3,1\4,1\5
REM DIRNAME cjc005,folder01,folder02,folder03,folder04
TITLE ""
FILE "P1Q_j_1649-1662.mp3" MP3
  TRACK 01 AUDIO
    TITLE "3:cjc005_0296"
    INDEX 01 00:00:00
  TRACK 02 AUDIO
    TITLE "0:"
    INDEX 01 00:01:24
  TRACK 03 AUDIO
    TITLE "4:cjc005_0297"
    INDEX 01 00:01:58
  TRACK 04 AUDIO
    TITLE "0:"
    INDEX 01 00:03:06
  TRACK 05 AUDIO
    TITLE "5:cjc005_0298"
    INDEX 01 00:03:31
  TRACK 06 AUDIO
    TITLE "0:"
    INDEX 01 00:07:03
  TRACK 07 AUDIO
    TITLE "3:cjc005_0299"
    INDEX 01 00:07:52
  TRACK 08 AUDIO
    TITLE "0:"
    INDEX 01 00:09:00
  TRACK 09 AUDIO
    TITLE "4:cjc005_0300"
    INDEX 01 00:09:30
  TRACK 10 AUDIO
    TITLE "0:"
    INDEX 01 00:10:49
  TRACK 11 AUDIO
    TITLE "5:cjc005_0301"
    INDEX 01 00:10:70
  TRACK 12 AUDIO
    TITLE "0:"
    INDEX 01 00:14:70
  TRACK 13 AUDIO
    TITLE "3:cjc005_0302"
    INDEX 01 00:15:54
  TRACK 14 AUDIO
    TITLE "0:"
    INDEX 01 00:17:00
  TRACK 15 AUDIO
    TITLE "4:cjc005_0303"
    INDEX 01 00:17:29
  TRACK 16 AUDIO
    TITLE "0:"
    INDEX 01 00:18:52
  TRACK 17 AUDIO
    TITLE "5:cjc005_0304"
    INDEX 01 00:19:05
  TRACK 18 AUDIO
    TITLE "0:"
    INDEX 01 00:23:06
  TRACK 19 AUDIO
    TITLE "3:cjc005_0305"
    INDEX 01 00:23:71
  TRACK 20 AUDIO
    TITLE "0:"
    INDEX 01 00:25:15
  TRACK 21 AUDIO
    TITLE "4:cjc005_0306"
    INDEX 01 00:25:41
  TRACK 22 AUDIO
    TITLE "0:"
    INDEX 01 00:26:60
  TRACK 23 AUDIO
    TITLE "5:cjc005_0307"
    INDEX 01 00:27:10
  TRACK 24 AUDIO
    TITLE "0:"
    INDEX 01 00:29:54
  TRACK 25 AUDIO
    TITLE "3:cjc005_0308"
    INDEX 01 00:30:34
  TRACK 26 AUDIO
    TITLE "0:"
    INDEX 01 00:31:57
  TRACK 27 AUDIO
    TITLE "4:cjc005_0309"
    INDEX 01 00:32:13
  TRACK 28 AUDIO
    TITLE "0:"
    INDEX 01 00:33:30
  TRACK 29 AUDIO
    TITLE "5:cjc005_0310"
    INDEX 01 00:33:58
  TRACK 30 AUDIO
    TITLE "0:"
    INDEX 01 00:37:48
  TRACK 31 AUDIO
    TITLE "3:cjc005_0311"
    INDEX 01 00:38:26
  TRACK 32 AUDIO
    TITLE "0:"
    INDEX 01 00:39:51
  TRACK 33 AUDIO
    TITLE "4:cjc005_0312"
    INDEX 01 00:40:05
  TRACK 34 AUDIO
    TITLE "0:"
    INDEX 01 00:41:24
  TRACK 35 AUDIO
    TITLE "5:cjc005_0313"
    INDEX 01 00:41:47
  TRACK 36 AUDIO
    TITLE "0:"
    INDEX 01 00:46:15
  TRACK 37 AUDIO
    TITLE "3:cjc005_0314"
    INDEX 01 00:46:68
  TRACK 38 AUDIO
    TITLE "0:"
    INDEX 01 00:48:24
  TRACK 39 AUDIO
    TITLE "4:cjc005_0315"
    INDEX 01 00:48:48
  TRACK 40 AUDIO
    TITLE "0:"
    INDEX 01 00:50:09
  TRACK 41 AUDIO
    TITLE "5:cjc005_0316"
    INDEX 01 00:50:41
  TRACK 42 AUDIO
    TITLE "0:"
    INDEX 01 00:54:36
  TRACK 43 AUDIO
    TITLE "3:cjc005_0317"
    INDEX 01 00:55:22
  TRACK 44 AUDIO
    TITLE "0:"
    INDEX 01 00:57:46
  TRACK 45 AUDIO
    TITLE "4:cjc005_0318"
    INDEX 01 00:58:05
  TRACK 46 AUDIO
    TITLE "0:"
    INDEX 01 01:01:60
  TRACK 47 AUDIO
    TITLE "5:cjc005_0319"
    INDEX 01 01:02:10
  TRACK 48 AUDIO
    TITLE "0:"
    INDEX 01 01:06:22
  TRACK 49 AUDIO
    TITLE "3:cjc005_0320"
    INDEX 01 01:07:10
  TRACK 50 AUDIO
    TITLE "0:"
    INDEX 01 01:08:42
  TRACK 51 AUDIO
    TITLE "4:cjc005_0321"
    INDEX 01 01:08:72
  TRACK 52 AUDIO
    TITLE "0:"
    INDEX 01 01:10:51
  TRACK 53 AUDIO
    TITLE "5:cjc005_0322"
    INDEX 01 01:11:00
  TRACK 54 AUDIO
    TITLE "0:"
    INDEX 01 01:14:72
  TRACK 55 AUDIO
    TITLE "3:cjc005_0323"
    INDEX 01 01:15:60
  TRACK 56 AUDIO
    TITLE "0:"
    INDEX 01 01:17:18
  TRACK 57 AUDIO
    TITLE "4:cjc005_0324"
    INDEX 01 01:17:43
  TRACK 58 AUDIO
    TITLE "0:"
    INDEX 01 01:18:66
  TRACK 59 AUDIO
    TITLE "5:cjc005_0325"
    INDEX 01 01:19:15
  TRACK 60 AUDIO
    TITLE "0:"
    INDEX 01 01:23:30
  TRACK 61 AUDIO
    TITLE "3:cjc005_0326"
    INDEX 01 01:24:24
  TRACK 62 AUDIO
    TITLE "0:"
    INDEX 01 01:25:31
  TRACK 63 AUDIO
    TITLE "4:cjc005_0327"
    INDEX 01 01:25:66
  TRACK 64 AUDIO
    TITLE "0:"
    INDEX 01 01:28:06
  TRACK 65 AUDIO
    TITLE "5:cjc005_0328"
    INDEX 01 01:28:37
  TRACK 66 AUDIO
    TITLE "0:"
    INDEX 01 01:32:33
  TRACK 67 AUDIO
    TITLE "3:cjc005_0329"
    INDEX 01 01:33:21
  TRACK 68 AUDIO
    TITLE "0:"
    INDEX 01 01:34:48
  TRACK 69 AUDIO
    TITLE "4:cjc005_0330"
    INDEX 01 01:35:06
  TRACK 70 AUDIO
    TITLE "0:"
    INDEX 01 01:36:48
  TRACK 71 AUDIO
    TITLE "5:cjc005_0331"
    INDEX 01 01:36:72
  TRACK 72 AUDIO
    TITLE "0:"
    INDEX 01 01:41:01
  TRACK 73 AUDIO
    TITLE "3:cjc005_0332"
    INDEX 01 01:41:61
  TRACK 74 AUDIO
    TITLE "0:"
    INDEX 01 01:43:02
  TRACK 75 AUDIO
    TITLE "4:cjc005_0333"
    INDEX 01 01:43:33
  TRACK 76 AUDIO
    TITLE "0:"
    INDEX 01 01:45:06
  TRACK 77 AUDIO
    TITLE "5:cjc005_0334"
    INDEX 01 01:45:32
  TRACK 78 AUDIO
    TITLE "0:"
    INDEX 01 01:49:10
  TRACK 79 AUDIO
    TITLE "3:cjc005_0335"
    INDEX 01 01:49:63
  TRACK 80 AUDIO
    TITLE "0:"
    INDEX 01 01:51:36
  TRACK 81 AUDIO
    TITLE "4:cjc005_0336"
    INDEX 01 01:51:58
  TRACK 82 AUDIO
    TITLE "0:"
    INDEX 01 01:53:27
  TRACK 83 AUDIO
    TITLE "5:cjc005_0337"
    INDEX 01 01:53:55
  TRACK 84 AUDIO
    TITLE "0:"
    INDEX 01 01:56:57
